<svg width="186" height="43" viewBox="0 0 186 43" fill="none" xmlns="http://www.w3.org/2000/svg">
<path fill-rule="evenodd" clip-rule="evenodd" d="M32.6817 0H32.6491C30.0173 0 23.3024 0.31868 21.0183 0.762899C18.5242 1.23726 16.1109 2.04495 13.8481 3.16265C11.6855 4.23386 9.74988 5.68653 8.14152 7.44551C6.53203 9.20307 5.40122 11.3944 4.74908 14.0195L17.3031 13.7298C17.9369 11.5232 19.0469 9.93137 20.633 8.95441C22.2191 7.97584 24.2498 7.45838 26.7249 7.40205C27.7607 7.37322 28.7973 7.41437 29.8271 7.52518C30.6781 7.60352 31.5033 7.85006 32.2514 8.24945C32.9087 8.61748 33.4241 9.18182 33.7199 9.85733C34.0326 10.555 34.0802 11.5087 33.8625 12.711C33.8108 13.2418 33.6382 13.7552 33.3571 14.2142C33.076 14.6733 32.6933 15.0668 32.2363 15.3666C31.1331 16.0551 29.9101 16.5458 28.6262 16.8152C26.9825 17.1912 25.3154 17.4646 23.6352 17.6336C21.7788 17.8348 19.8841 18.0883 17.9511 18.3941C16.018 18.7015 14.0825 19.0982 12.1444 19.5843C10.2774 20.0484 8.48826 20.7661 6.83058 21.7161C5.20106 22.6595 3.77907 23.9021 2.64507 25.3736C1.45922 26.8898 0.657807 28.8002 0.24084 31.105C-0.139433 33.1974 -0.0693838 34.996 0.45099 36.5008C0.936261 37.9548 1.85101 39.2403 3.08288 40.1994C4.42211 41.2097 5.97606 41.9219 7.63366 42.2853C9.58976 42.7268 11.5978 42.9167 13.6054 42.8503C16.4868 42.775 19.3459 42.34 22.1116 41.5562C24.9635 40.7553 27.6103 39.3878 29.8822 37.5414C29.8171 38.2198 29.2917 40.3781 29.3243 41.0299C29.3493 41.6818 29.3243 42.4036 29.5469 42.942C29.5469 42.942 45.1807 42.8599 63.5063 42.8599C73.1808 42.8599 75.8627 32.9833 75.8627 32.9833H50.7472C50.7472 32.9833 71.9974 16.8876 76.3255 8.88439C77.4088 6.88058 77.639 0.0169014 77.639 0.0169014H33.4522C33.2721 0.00483024 33.0069 0 32.6767 0H32.6817ZM46.6717 11.0113C46.7418 10.6251 46.7918 10.2557 46.8268 9.89354H60.4266C60.4266 9.89354 52.2157 16.5182 44.4952 23.1646L46.6717 11.0041V11.0113ZM14.6887 33.8741C13.983 33.8461 13.2879 33.699 12.6348 33.4396C12.3922 33.347 12.172 33.2074 11.9878 33.0292C11.8036 32.851 11.6593 32.6382 11.564 32.4039C11.3972 31.9468 11.4647 31.3674 11.7666 30.6656C12.0715 29.9503 12.5432 29.3125 13.1451 28.8018C13.7609 28.2817 14.4488 27.8469 15.1891 27.5102C16.0106 27.1367 16.8666 26.8385 17.7459 26.6194C18.6766 26.3796 19.6064 26.1768 20.5354 26.011C21.5178 25.85 22.4927 25.6987 23.46 25.5571C24.4291 25.4219 25.3631 25.2714 26.2621 25.1056C27.1627 24.9415 28.0133 24.7507 28.8364 24.5383C29.5865 24.3515 30.3112 24.0801 30.9955 23.7295L29.7095 26.6652C29.4201 27.2809 29.0909 27.8784 28.7238 28.4542C28.1622 29.3096 27.462 30.0726 26.6498 30.7139C25.56 31.5684 24.3397 32.255 23.0322 32.7491C21.5312 33.3446 19.6306 33.7164 17.3306 33.8645C16.8303 33.8959 16.3624 33.9104 15.9021 33.9104C15.4843 33.9104 15.0765 33.9104 14.6837 33.8717L14.6887 33.8741Z" fill="white"/>
<path d="M88.9746 8.35381V5.87198H100.368V8.35381H96.1998V19.2927H93.1426V8.35381H88.9746Z" fill="white"/>
<path d="M105.111 11.8497C104.781 11.4972 104.276 11.3234 103.61 11.3234C103.231 11.311 102.854 11.3846 102.51 11.5382C102.239 11.667 101.999 11.8497 101.807 12.0742C101.639 12.2747 101.514 12.5052 101.439 12.7526C101.372 12.9598 101.329 13.1736 101.311 13.39H105.814C105.735 12.8246 105.495 12.2915 105.121 11.8497H105.111ZM101.987 16.9606C102.402 17.3485 102.999 17.5432 103.778 17.5449C104.29 17.5579 104.794 17.4161 105.219 17.1393C105.564 16.9461 105.829 16.6443 105.97 16.2846H108.404C108.014 17.4499 107.416 18.2836 106.613 18.7858C105.735 19.3052 104.719 19.5661 103.69 19.5366C102.958 19.5467 102.23 19.4221 101.546 19.1696C100.935 18.9409 100.383 18.5848 99.9302 18.1267C99.4799 17.6598 99.1326 17.1095 98.9095 16.5091C98.6627 15.8465 98.5406 15.1466 98.5493 14.4426C98.5429 13.7506 98.6675 13.0633 98.917 12.4146C99.1478 11.8102 99.5047 11.258 99.9656 10.7921C100.426 10.3261 100.982 9.95643 101.596 9.70583C102.259 9.43691 102.972 9.30294 103.69 9.31231C104.466 9.29607 105.235 9.46176 105.93 9.79515C106.549 10.1011 107.087 10.5426 107.498 11.0844C107.914 11.6371 108.215 12.2628 108.384 12.9264C108.568 13.632 108.634 14.3615 108.579 15.0872H101.324C101.361 15.9515 101.589 16.5792 102.007 16.9654L101.987 16.9606Z" fill="white"/>
<path d="M114.528 11.3234C114.137 11.3101 113.751 11.4111 113.42 11.6131C113.121 11.808 112.871 12.0655 112.689 12.3664C112.497 12.6798 112.361 13.0228 112.289 13.3804C112.212 13.7426 112.172 14.1114 112.171 14.4812C112.173 14.8407 112.212 15.199 112.289 15.5507C112.36 15.8974 112.489 16.2308 112.669 16.5382C112.843 16.8308 113.086 17.0791 113.38 17.2625C113.707 17.4583 114.086 17.5566 114.471 17.5449C114.751 17.5651 115.034 17.5285 115.299 17.4375C115.564 17.3464 115.807 17.2029 116.012 17.0162C116.39 16.615 116.626 16.1074 116.685 15.5677H119.339C119.159 16.8552 118.64 17.8394 117.783 18.5203C116.926 19.2011 115.828 19.5391 114.491 19.5342C113.781 19.543 113.077 19.4184 112.417 19.1673C111.812 18.9388 111.264 18.59 110.808 18.1436C110.359 17.6927 110.008 17.159 109.777 16.5744C109.524 15.9349 109.398 15.255 109.407 14.5706C109.404 13.859 109.522 13.1518 109.757 12.4774C109.967 11.8596 110.308 11.2906 110.758 10.8068C111.207 10.3305 111.759 9.95481 112.374 9.70589C113.066 9.43273 113.808 9.29882 114.556 9.31237C115.132 9.31043 115.706 9.38434 116.262 9.53206C116.794 9.67385 117.295 9.90603 117.743 10.2177C118.201 10.536 118.577 10.9517 118.842 11.4327C119.107 11.9137 119.254 12.4471 119.271 12.9917H116.575C116.391 11.8763 115.709 11.3186 114.528 11.3186V11.3234Z" fill="white"/>
<path d="M123.039 9.57546V10.9298H123.099C123.415 10.3962 123.89 9.96642 124.463 9.69617C124.997 9.44545 125.582 9.31424 126.176 9.31231C126.797 9.2919 127.417 9.39121 127.998 9.60443C128.437 9.77414 128.823 10.0522 129.116 10.4108C129.402 10.7846 129.599 11.215 129.691 11.671C129.806 12.2119 129.862 12.763 129.856 13.3151V19.2928H127.092V13.8052C127.092 13.0013 126.962 12.4049 126.702 12.009C126.441 11.6131 125.981 11.4175 125.318 11.4175C124.566 11.4175 124.021 11.6332 123.682 12.0645C123.343 12.4959 123.177 13.2073 123.182 14.1987V19.2928H120.41V9.57546H123.039Z" fill="white"/>
<path d="M134.045 15.5797C134.115 15.9326 134.25 16.2704 134.445 16.5768C134.63 16.8683 134.888 17.1106 135.195 17.2818C135.555 17.4674 135.959 17.5582 136.366 17.5449C136.776 17.557 137.182 17.4663 137.545 17.2818C137.852 17.1117 138.111 16.8692 138.295 16.5768C138.49 16.2704 138.625 15.9326 138.695 15.5797C138.774 15.2054 138.813 14.8245 138.813 14.4426C138.813 14.0576 138.774 13.6735 138.695 13.2959C138.627 12.9432 138.492 12.6058 138.295 12.3012C138.108 12.0111 137.85 11.7692 137.545 11.5962C137.185 11.404 136.777 11.3097 136.366 11.3234C135.985 11.3046 135.605 11.3856 135.267 11.5577C134.93 11.7298 134.646 11.9866 134.447 12.3012C134.251 12.6058 134.115 12.9432 134.047 13.2959C133.969 13.6735 133.93 14.0576 133.929 14.4426C133.929 14.8245 133.969 15.2054 134.047 15.5797H134.045ZM131.543 12.3278C131.771 11.7237 132.129 11.1732 132.594 10.7126C133.059 10.262 133.616 9.90937 134.23 9.67693C134.914 9.42487 135.642 9.30113 136.374 9.31238C137.108 9.30226 137.838 9.42595 138.525 9.67693C139.147 9.9047 139.711 10.2601 140.176 10.7187C140.642 11.1772 140.999 11.7279 141.222 12.3326C141.477 13.0101 141.603 13.7267 141.592 14.4475C141.604 15.1652 141.478 15.8787 141.222 16.5527C140.992 17.1536 140.634 17.7013 140.171 18.1606C139.707 18.6138 139.146 18.9647 138.528 19.189C137.84 19.4352 137.11 19.5564 136.376 19.5463C135.645 19.5573 134.918 19.4361 134.232 19.189C133.617 18.9645 133.059 18.6155 132.596 18.1654C132.133 17.7061 131.775 17.1584 131.545 16.5575C131.289 15.8836 131.164 15.17 131.175 14.4523C131.165 13.7315 131.29 13.0149 131.545 12.3374L131.543 12.3278Z" fill="white"/>
<path d="M145.73 19.2927H142.966V5.87198H145.73V19.2927Z" fill="white"/>
<path d="M149.996 15.5797C150.067 15.9322 150.203 16.2698 150.396 16.5768C150.582 16.8683 150.84 17.1106 151.147 17.2817C151.506 17.467 151.909 17.5578 152.315 17.5449C152.726 17.5574 153.133 17.4668 153.496 17.2817C153.804 17.1116 154.062 16.8691 154.247 16.5768C154.44 16.2698 154.575 15.9322 154.647 15.5797C154.725 15.2054 154.765 14.8245 154.764 14.4426C154.764 14.0575 154.725 13.6734 154.647 13.2958C154.578 12.9434 154.442 12.6063 154.247 12.3012C154.059 12.011 153.802 11.7691 153.496 11.5962C153.135 11.4034 152.727 11.3091 152.315 11.3234C151.934 11.3051 151.555 11.3862 151.218 11.5583C150.881 11.7303 150.598 11.987 150.399 12.3012C150.203 12.6063 150.068 12.9434 149.999 13.2958C149.92 13.6734 149.881 14.0575 149.881 14.4426C149.881 14.8245 149.92 15.2054 149.999 15.5797H149.996ZM147.494 12.3277C147.722 11.7236 148.08 11.1731 148.545 10.7126C149.01 10.262 149.567 9.90933 150.181 9.67689C150.865 9.42513 151.591 9.3014 152.323 9.31234C153.058 9.30198 153.789 9.42567 154.477 9.67689C155.099 9.90467 155.662 10.2601 156.128 10.7186C156.593 11.1772 156.95 11.7278 157.174 12.3326C157.429 13.0101 157.554 13.7266 157.544 14.4474C157.555 15.1651 157.43 15.8787 157.174 16.5526C156.943 17.1532 156.585 17.7008 156.123 18.1605C155.657 18.6123 155.096 18.9615 154.477 19.1841C153.788 19.4305 153.057 19.5517 152.323 19.5415C151.592 19.5522 150.866 19.431 150.181 19.1841C149.566 18.9597 149.008 18.6106 148.545 18.1605C148.082 17.7012 147.724 17.1535 147.494 16.5526C147.238 15.8787 147.113 15.1651 147.124 14.4474C147.114 13.7266 147.239 13.0101 147.494 12.3326V12.3277Z" fill="white"/>
<path d="M173.098 19.2927H170.331V9.57542H173.098V19.2927ZM170.331 5.87198H173.083V8.08342H170.331V5.88405V5.87198Z" fill="white"/>
<path d="M180.625 14.7708C180.441 14.8311 180.252 14.8787 180.06 14.9133C179.857 14.9519 179.647 14.9809 179.427 15.0074C179.207 15.034 178.984 15.063 178.764 15.0992C178.557 15.1376 178.352 15.1884 178.151 15.2513C177.963 15.3039 177.785 15.3855 177.623 15.4927C177.474 15.6005 177.352 15.7391 177.265 15.8983C177.166 16.0898 177.119 16.3024 177.128 16.5163C177.12 16.7255 177.168 16.9331 177.265 17.1199C177.351 17.2769 177.478 17.4093 177.633 17.5038C177.801 17.6015 177.986 17.6686 178.179 17.7017C178.392 17.7387 178.608 17.7573 178.824 17.7573C179.258 17.7791 179.69 17.6882 180.075 17.4941C180.349 17.3436 180.578 17.1264 180.738 16.864C180.875 16.636 180.964 16.3841 181.001 16.1228C181.03 15.9227 181.046 15.7212 181.051 15.5193V14.5246C180.924 14.6338 180.775 14.716 180.613 14.766L180.625 14.7708ZM175.161 11.0022C175.441 10.5943 175.814 10.254 176.252 10.0076C176.717 9.74789 177.225 9.56664 177.753 9.4716C178.302 9.36573 178.86 9.31236 179.419 9.31226C179.934 9.31249 180.448 9.34717 180.958 9.41607C181.451 9.47634 181.931 9.61246 182.379 9.81925C182.796 10.01 183.158 10.2969 183.432 10.6546C183.723 11.073 183.866 11.5709 183.84 12.0741V17.144C183.84 17.5644 183.866 17.9845 183.918 18.4019C183.944 18.7177 184.036 19.025 184.19 19.3048H181.373C181.322 19.1535 181.28 18.9995 181.246 18.8437C181.215 18.684 181.193 18.5228 181.181 18.3608C180.751 18.7909 180.215 19.1076 179.622 19.2806C179.029 19.4558 178.411 19.5445 177.791 19.5438C177.337 19.5476 176.885 19.4907 176.447 19.3748C176.051 19.2721 175.68 19.0931 175.357 18.8485C175.042 18.6087 174.792 18.2999 174.626 17.948C174.446 17.5377 174.36 17.0945 174.376 16.6491C174.357 16.1782 174.461 15.7104 174.676 15.2875C174.862 14.9466 175.13 14.6536 175.457 14.4328C175.788 14.2112 176.157 14.0478 176.547 13.95C176.955 13.8481 177.367 13.7675 177.783 13.7086C178.199 13.6458 178.609 13.5951 179.012 13.5565C179.372 13.5266 179.73 13.4709 180.082 13.3899C180.355 13.3339 180.611 13.221 180.833 13.0591C180.924 12.9818 180.995 12.8843 181.038 12.775C181.082 12.6657 181.097 12.5478 181.083 12.4315C181.095 12.1938 181.044 11.9572 180.936 11.7434C180.845 11.5811 180.711 11.4452 180.548 11.3499C180.374 11.2522 180.182 11.1882 179.982 11.1616C179.754 11.1288 179.523 11.1127 179.292 11.1133C178.836 11.0881 178.385 11.2077 178.006 11.4537C177.837 11.5924 177.7 11.7647 177.606 11.9588C177.512 12.153 177.462 12.3644 177.461 12.5787H174.674C174.69 12.0264 174.859 11.4882 175.161 11.0191V11.0022Z" fill="white"/>
<path d="M95.547 30.0531C95.2134 29.7022 94.7131 29.5268 94.0459 29.5268C93.6663 29.5139 93.289 29.5884 92.9451 29.744C92.6744 29.872 92.4355 30.0548 92.2446 30.28C92.0766 30.4798 91.9508 30.7095 91.8743 30.956C91.8102 31.1647 91.7674 31.379 91.7468 31.5958H96.25C96.1695 31.0283 95.9259 30.4939 95.547 30.0531ZM92.4222 35.1664C92.8375 35.5559 93.4346 35.7499 94.2135 35.7483C94.7257 35.762 95.2295 35.621 95.6546 35.3451C95.9982 35.1508 96.2629 34.8494 96.4051 34.4904H98.8393C98.4516 35.6541 97.8536 36.4894 97.0481 36.9892C96.1713 37.5104 95.1554 37.7723 94.126 37.7424C93.3944 37.7526 92.6676 37.628 91.9844 37.3754C91.3726 37.1471 90.8207 36.7909 90.3683 36.3325C89.9163 35.8664 89.5681 35.3159 89.345 34.715C89.0986 34.0522 88.9766 33.3524 88.9848 32.6484C88.978 31.9554 89.1035 31.2671 89.355 30.618C89.5866 30.0121 89.9442 29.4584 90.4058 28.9908C90.8675 28.5297 91.4205 28.1627 92.032 27.9116C92.6943 27.642 93.4072 27.5072 94.126 27.5157C94.9061 27.4968 95.6792 27.6626 96.3776 27.9986C96.9961 28.3043 97.5323 28.7449 97.9437 29.2853C98.3604 29.8378 98.6613 30.4636 98.8293 31.1274C99.0148 31.8369 99.0806 32.5705 99.0245 33.3002H91.7443C91.7843 34.1669 92.0119 34.7922 92.4272 35.1809L92.4222 35.1664Z" fill="white"/>
<path d="M102.842 28.0999V29.4157H102.882C103.22 28.9347 103.67 28.5363 104.196 28.252C104.732 27.97 105.336 27.827 105.947 27.8368C106.551 27.8279 107.149 27.95 107.698 28.1941C108.247 28.4543 108.675 28.9041 108.896 29.4543C109.22 29.0037 109.635 28.6203 110.115 28.3269C110.659 27.9945 111.293 27.8264 111.936 27.844C112.436 27.8399 112.933 27.9033 113.415 28.0323C113.846 28.146 114.247 28.3514 114.585 28.6335C114.921 28.9311 115.179 29.3019 115.336 29.715C115.531 30.2297 115.623 30.7752 115.609 31.3229V37.8245H112.857V32.3103C112.857 31.9844 112.857 31.6778 112.817 31.3905C112.798 31.1284 112.726 30.8723 112.604 30.6373C112.485 30.4239 112.306 30.2479 112.086 30.1303C111.8 29.9915 111.481 29.9267 111.161 29.942C110.831 29.9273 110.504 30.0026 110.217 30.1593C109.982 30.2967 109.787 30.4904 109.652 30.7218C109.512 30.9667 109.419 31.2342 109.379 31.5112C109.334 31.807 109.312 32.1056 109.312 32.4045V37.8172H106.545V32.3683C106.545 32.0786 106.545 31.7937 106.525 31.5112C106.513 31.2442 106.457 30.9808 106.357 30.7314C106.263 30.4949 106.092 30.2941 105.869 30.1593C105.564 29.9958 105.217 29.9204 104.869 29.942C104.695 29.9495 104.522 29.9779 104.356 30.0265C104.127 30.0913 103.914 30.2005 103.73 30.3476C103.508 30.5324 103.331 30.7635 103.215 31.0236C103.058 31.3896 102.984 31.7841 103 32.18V37.8172H100.233V28.0999H102.842Z" fill="white"/>
<path d="M132.388 37.3174C131.756 37.5795 131.075 37.7166 130.387 37.7206C129.403 37.7347 128.427 37.5523 127.52 37.1846C126.7 36.8497 125.966 36.3463 125.368 35.7095C124.773 35.0662 124.315 34.3154 124.022 33.5005C123.704 32.6255 123.543 31.7045 123.547 30.7773C123.538 29.8248 123.697 28.8778 124.017 27.9767C124.31 27.1501 124.767 26.3866 125.363 25.7291C125.958 25.0821 126.692 24.5687 127.515 24.225C128.422 23.8512 129.401 23.6653 130.387 23.6794C131.092 23.678 131.792 23.7831 132.463 23.9908C133.118 24.1896 133.731 24.4986 134.275 24.9034C134.818 25.3071 135.271 25.812 135.608 26.3882C135.97 27.012 136.19 27.7035 136.251 28.4161H133.324C133.195 27.7494 132.822 27.1496 132.273 26.7262C131.725 26.3409 131.06 26.1422 130.382 26.1612C129.773 26.1425 129.17 26.2756 128.631 26.5475C128.16 26.7956 127.758 27.1502 127.46 27.5808C127.154 28.0312 126.933 28.5308 126.809 29.0559C126.671 29.6158 126.602 30.1896 126.604 30.7652C126.603 31.3201 126.671 31.873 126.809 32.4117C126.935 32.9282 127.155 33.4189 127.46 33.8602C127.76 34.287 128.162 34.6387 128.631 34.8863C129.171 35.1563 129.774 35.2884 130.382 35.2701C131.394 35.2701 132.177 35.0231 132.729 34.529C133.281 34.0349 133.603 33.317 133.694 32.3755H130.617V30.1761H136.461V37.4188H134.525L134.215 35.8979C133.746 36.5132 133.121 37.002 132.401 37.3174H132.388Z" fill="white"/>
<path d="M144.239 29.9758C143.906 29.6265 143.405 29.4519 142.738 29.4519C142.359 29.4385 141.982 29.5122 141.638 29.6668C141.367 29.7947 141.128 29.9775 140.937 30.2027C140.769 30.4025 140.643 30.6322 140.567 30.8787C140.501 31.0869 140.459 31.3014 140.442 31.5185H144.945C144.866 30.9523 144.626 30.4182 144.252 29.9758H144.239ZM141.115 35.0891C141.53 35.4786 142.127 35.6726 142.906 35.671C143.418 35.6852 143.922 35.5442 144.347 35.2678C144.691 35.0735 144.955 34.7721 145.098 34.4131H147.534C147.141 35.5792 146.534 36.4121 145.74 36.9119C144.864 37.4331 143.848 37.695 142.818 37.6651C142.087 37.6753 141.36 37.5507 140.677 37.2981C140.065 37.0698 139.513 36.7136 139.061 36.2552C138.606 35.7901 138.255 35.2405 138.027 34.6401C137.781 33.9774 137.659 33.2776 137.667 32.5735C137.656 31.8787 137.778 31.1879 138.027 30.5359C138.257 29.9314 138.613 29.3791 139.074 28.9134C139.534 28.4477 140.089 28.0788 140.704 27.8295C141.367 27.5598 142.08 27.4251 142.798 27.4336C143.574 27.4162 144.343 27.5819 145.037 27.9164C145.658 28.2214 146.196 28.6621 146.609 29.2032C147.023 29.7568 147.324 30.3822 147.494 31.0453C147.677 31.7552 147.743 32.4884 147.689 33.2181H140.434C140.472 34.0848 140.699 34.7101 141.115 35.0988V35.0891Z" fill="white"/>
<path d="M151.177 35.0046C151.294 35.2057 151.456 35.379 151.652 35.5116C151.855 35.6477 152.082 35.7467 152.323 35.8037C152.581 35.8669 152.847 35.8986 153.113 35.8979C153.319 35.8965 153.525 35.8747 153.726 35.8327C153.931 35.7925 154.128 35.7225 154.312 35.6251C154.484 35.5317 154.634 35.4032 154.749 35.2484C154.871 35.0739 154.932 34.867 154.924 34.657C154.924 34.2562 154.648 33.9552 154.096 33.754C153.343 33.5016 152.572 33.3007 151.79 33.1529C151.387 33.066 150.992 32.9622 150.609 32.8439C150.247 32.7347 149.903 32.5762 149.588 32.3731C149.294 32.1873 149.048 31.9397 148.868 31.6488C148.676 31.32 148.582 30.9467 148.595 30.5697C148.571 30.0321 148.703 29.4988 148.975 29.0294C149.218 28.6344 149.563 28.3068 149.976 28.0782C150.411 27.8414 150.885 27.6781 151.377 27.5953C151.903 27.5008 152.438 27.454 152.973 27.4553C153.506 27.4533 154.039 27.5035 154.562 27.605C155.047 27.6957 155.511 27.8673 155.935 28.112C156.338 28.3519 156.68 28.6761 156.936 29.0608C157.22 29.5133 157.384 30.0267 157.414 30.5552H154.789C154.752 30.0409 154.539 29.6933 154.186 29.5122C153.787 29.3222 153.346 29.2286 152.901 29.2394C152.733 29.2405 152.566 29.2501 152.4 29.2684C152.228 29.2828 152.059 29.3236 151.9 29.3891C151.753 29.4513 151.623 29.5446 151.52 29.6619C151.401 29.8221 151.347 30.0188 151.369 30.2146C151.391 30.4104 151.486 30.5917 151.637 30.7242C151.847 30.8896 152.088 31.0142 152.348 31.0911C152.676 31.1894 153.01 31.27 153.348 31.3325C153.724 31.4074 154.099 31.4895 154.497 31.574C154.895 31.6591 155.289 31.7655 155.675 31.8927C156.04 32.0083 156.385 32.1759 156.698 32.39C156.993 32.5945 157.239 32.857 157.421 33.1601C157.612 33.5101 157.705 33.902 157.691 34.2972C157.72 34.8239 157.601 35.3482 157.348 35.8154C157.094 36.2826 156.715 36.6754 156.25 36.9529C155.8 37.225 155.301 37.4133 154.779 37.5082C154.225 37.6147 153.661 37.6681 153.096 37.6675C152.52 37.6676 151.946 37.611 151.382 37.4985C150.851 37.3983 150.342 37.2069 149.881 36.9336C149.409 36.654 149.02 36.261 148.752 35.793C148.484 35.3251 148.346 34.798 148.352 34.2634H150.982C150.974 34.523 151.039 34.7799 151.169 35.007L151.177 35.0046Z" fill="white"/>
<path d="M164.349 27.7015V29.488H162.325V34.2996C162.325 34.7511 162.403 35.0505 162.558 35.2025C162.713 35.3546 163.026 35.4271 163.493 35.4271C163.643 35.4281 163.792 35.4217 163.941 35.4078C164.078 35.3974 164.214 35.3788 164.349 35.3522V37.4188C164.091 37.4592 163.832 37.485 163.571 37.4961C163.286 37.4961 163.008 37.5154 162.733 37.5154C162.326 37.5169 161.919 37.4878 161.517 37.4285C161.165 37.3805 160.826 37.2692 160.516 37.1001C160.222 36.9362 159.983 36.695 159.826 36.4048C159.642 36.0367 159.556 35.6301 159.576 35.2219V29.488H157.902V27.7015H159.576V24.7899H162.343V27.7015H164.349Z" fill="white"/>
<path d="M171.021 32.8994C170.836 32.9577 170.648 33.0053 170.458 33.0418C170.253 33.078 170.043 33.1094 169.823 33.1336C169.602 33.1577 169.382 33.1891 169.162 33.2277C168.955 33.2659 168.75 33.3167 168.549 33.3798C168.36 33.4357 168.182 33.5213 168.021 33.6333C167.872 33.7405 167.749 33.8782 167.661 34.0365C167.564 34.2295 167.518 34.4426 167.526 34.6569C167.519 34.865 167.566 35.0714 167.661 35.2581C167.747 35.4158 167.875 35.549 168.031 35.6444C168.199 35.7431 168.385 35.8095 168.579 35.8399C168.79 35.879 169.005 35.8984 169.22 35.8979C169.659 35.922 170.096 35.8311 170.486 35.6347C170.759 35.4835 170.988 35.2664 171.149 35.0046C171.286 34.7759 171.375 34.5232 171.411 34.261C171.438 34.0616 171.454 33.8609 171.459 33.6599V32.6652C171.332 32.7748 171.183 32.8572 171.021 32.9066V32.8994ZM173.085 24.691C173.003 24.9408 172.879 25.1757 172.717 25.3863C172.548 25.6036 172.335 25.7859 172.092 25.9222C171.797 26.0763 171.464 26.1506 171.129 26.1371C170.846 26.1396 170.564 26.1046 170.29 26.0333C170.04 25.9657 169.778 25.8933 169.54 25.8184C169.302 25.7436 169.057 25.6543 168.837 25.5915C168.622 25.5303 168.4 25.4994 168.176 25.4997C168.073 25.4894 167.968 25.5036 167.871 25.541C167.774 25.5785 167.689 25.638 167.621 25.7146C167.502 25.8888 167.417 26.0828 167.371 26.2868H166.182C166.246 26.0096 166.33 25.7369 166.433 25.4708C166.534 25.2088 166.679 24.9643 166.86 24.7465C167.052 24.5214 167.292 24.3387 167.563 24.2105C167.898 24.0623 168.264 23.9913 168.632 24.0029C168.848 24.0026 169.063 24.0377 169.267 24.1067L169.88 24.324C170.087 24.4152 170.298 24.4957 170.513 24.5654C170.723 24.6345 170.944 24.6695 171.166 24.6692C171.281 24.68 171.397 24.6683 171.507 24.6347C171.617 24.6011 171.719 24.5463 171.807 24.4737C171.87 24.4138 171.918 24.3413 171.949 24.2611C171.98 24.181 171.992 24.0953 171.984 24.0101H173.303C173.238 24.225 173.163 24.4568 173.077 24.7079L173.085 24.691ZM165.547 29.1307C165.827 28.7234 166.201 28.3832 166.638 28.1361C167.103 27.8765 167.611 27.6945 168.139 27.5977C168.687 27.4931 169.244 27.4397 169.803 27.4384C170.318 27.4393 170.833 27.4748 171.344 27.5446C171.837 27.6052 172.316 27.7413 172.765 27.9478C173.182 28.1385 173.543 28.4254 173.818 28.7831C174.108 29.202 174.251 29.6996 174.226 30.2027V35.2581C174.224 35.6793 174.25 36.1002 174.303 36.5183C174.329 36.8342 174.422 37.1416 174.576 37.4212H171.769C171.669 37.1153 171.604 36.7995 171.576 36.4797C171.147 36.911 170.611 37.2286 170.018 37.4019C169.424 37.5761 168.807 37.6648 168.186 37.6651C167.733 37.6687 167.281 37.6118 166.843 37.4961C166.447 37.3914 166.076 37.2126 165.752 36.9698C165.439 36.7284 165.188 36.419 165.022 36.0668C164.841 35.6575 164.756 35.215 164.771 34.7704C164.754 34.2985 164.858 33.8298 165.074 33.4064C165.261 33.0667 165.527 32.774 165.852 32.5517C166.184 32.331 166.553 32.1676 166.943 32.0689C167.355 31.9619 167.773 31.8765 168.194 31.813C168.609 31.7526 169.017 31.7019 169.42 31.6633C169.781 31.6316 170.14 31.5752 170.493 31.4943C170.765 31.4399 171.022 31.3278 171.244 31.1659C171.335 31.0884 171.406 30.9905 171.449 30.8807C171.493 30.7709 171.508 30.6526 171.494 30.5358C171.506 30.2992 171.456 30.0634 171.349 29.8502C171.257 29.6876 171.122 29.5511 170.958 29.4543C170.785 29.3576 170.594 29.2937 170.396 29.2659C170.166 29.2352 169.934 29.2199 169.703 29.2201C169.248 29.1953 168.798 29.3139 168.419 29.5581C168.25 29.6977 168.114 29.8704 168.019 30.0648C167.925 30.2592 167.874 30.4708 167.871 30.6855H165.119C165.135 30.1333 165.302 29.595 165.605 29.1259L165.547 29.1307Z" fill="white"/>
<path d="M178.451 33.7082C178.522 34.0601 178.658 34.3969 178.852 34.7028C179.037 34.9947 179.295 35.237 179.602 35.4078C179.96 35.5945 180.364 35.6854 180.771 35.671C181.18 35.6848 181.587 35.594 181.949 35.4078C182.258 35.239 182.516 34.9962 182.699 34.7028C182.894 34.3974 183.03 34.0604 183.1 33.7082C183.178 33.3339 183.218 32.9529 183.217 32.5711C183.217 32.186 183.178 31.8019 183.1 31.4243C183.032 31.0715 182.896 30.7341 182.699 30.4296C182.513 30.1383 182.255 29.8954 181.949 29.7223C181.588 29.5313 181.181 29.4379 180.771 29.4519C180.39 29.4313 180.011 29.5102 179.673 29.6802C179.336 29.8501 179.052 30.1049 178.852 30.4176C178.656 30.7225 178.52 31.0597 178.451 31.4122C178.373 31.7898 178.334 32.1739 178.334 32.559C178.333 32.9409 178.373 33.3218 178.451 33.6961V33.7082ZM175.95 30.4562C176.174 29.8536 176.53 29.3046 176.994 28.8464C177.457 28.3883 178.018 28.0316 178.636 27.8005C179.321 27.548 180.048 27.4235 180.781 27.4336C181.515 27.424 182.245 27.5485 182.932 27.8005C183.554 28.0283 184.117 28.3837 184.583 28.8423C185.049 29.3008 185.406 29.8515 185.629 30.4562C185.884 31.1336 186.01 31.8503 185.999 32.5711C186.01 33.2887 185.885 34.0023 185.629 34.6763C185.401 35.2773 185.043 35.8246 184.578 36.2817C184.113 36.7343 183.551 37.0843 182.932 37.3078C182.244 37.5528 181.514 37.6739 180.781 37.6651C180.049 37.6747 179.322 37.5535 178.636 37.3078C178.022 37.083 177.465 36.733 177.003 36.2817C176.538 35.8241 176.18 35.277 175.95 34.6763C175.694 34.0023 175.568 33.2887 175.579 32.5711C175.569 31.8503 175.694 31.1336 175.95 30.4562Z" fill="white"/>
<path d="M164.567 16.7747C164.861 16.6313 165.118 16.4249 165.317 16.1712C165.516 15.9145 165.664 15.6249 165.755 15.3166C165.853 14.9903 165.902 14.652 165.9 14.3122C165.901 13.9304 165.863 13.5495 165.785 13.1751C165.714 12.8392 165.582 12.518 165.395 12.2263C165.216 11.9517 164.968 11.7251 164.674 11.5672C164.325 11.3935 163.936 11.3103 163.543 11.3258C163.195 11.3169 162.851 11.3942 162.543 11.5503C162.264 11.6998 162.024 11.9087 161.842 12.1611C161.649 12.4281 161.51 12.7279 161.432 13.0448C161.347 13.3862 161.305 13.7365 161.307 14.0877C161.306 14.438 161.342 14.7874 161.414 15.1307C161.475 15.4551 161.596 15.7665 161.77 16.0505C161.944 16.3239 162.181 16.5552 162.463 16.7265C162.786 16.9119 163.158 17.0033 163.533 16.9896C163.891 16.9965 164.246 16.9195 164.567 16.7651V16.7747ZM168.354 20.0074C168.237 20.5222 167.993 21.0023 167.644 21.4077C167.213 21.8875 166.673 22.2637 166.065 22.5061C165.378 22.8087 164.456 22.9592 163.301 22.9576C162.795 22.9548 162.291 22.8948 161.8 22.779C161.305 22.6665 160.832 22.4791 160.399 22.2237C159.98 21.9779 159.621 21.6486 159.345 21.258C159.056 20.8352 158.892 20.3445 158.87 19.8384H161.622C161.662 20.0541 161.75 20.2588 161.879 20.4388C162.009 20.6188 162.177 20.7697 162.372 20.8814C162.776 21.081 163.225 21.1805 163.678 21.1711C164.456 21.1711 165.024 20.9457 165.382 20.4951C165.753 19.9995 165.935 19.3958 165.897 18.7858V17.499H165.857C165.572 18.0016 165.125 18.4008 164.584 18.6361C164.035 18.8813 163.437 19.0066 162.833 19.0031C162.161 19.0202 161.494 18.888 160.884 18.6168C160.357 18.3763 159.897 18.0179 159.543 17.5714C159.181 17.1064 158.92 16.5761 158.775 16.0119C158.607 15.3956 158.523 14.761 158.525 14.1239C158.523 13.5092 158.618 12.8979 158.807 12.3108C158.981 11.7513 159.262 11.228 159.635 10.7681C160 10.3223 160.462 9.95962 160.989 9.70587C161.568 9.43407 162.206 9.29919 162.85 9.31234C163.455 9.29802 164.055 9.42039 164.602 9.66965C165.135 9.94165 165.571 10.3623 165.852 10.8768H165.892V9.58033H168.522V18.6772C168.515 19.1265 168.459 19.5739 168.357 20.0122L168.354 20.0074Z" fill="white"/>
</svg>
